<svg version="1.1" xmlns="http://www.w3.org/2000/svg" xmlns:xlink="http://www.w3.org/1999/xlink" width="880.44091796875" height="352"><defs/><g><g transform="translate(-14,-14) scale(1,1)"><rect fill="#C0C0C0" stroke="none" x="465" y="31" width="174" height="44" opacity="0.2"/></g><g transform="translate(-14,-14) scale(1,1)"><rect fill="#ffffff" stroke="none" x="458" y="24" width="174" height="44"/></g><g transform="translate(-14,-14) scale(1,1)"><path fill="none" stroke="#000000" d="M 458 24 L 632 24 L 632 68 L 458 68 L 458 24 Z Z" stroke-miterlimit="10"/></g><g transform="translate(-14,-14) scale(1,1)"><rect fill="#ffffff" stroke="none" x="448" y="31" width="20" height="10"/></g><g transform="translate(-14,-14) scale(1,1)"><path fill="none" stroke="#000000" d="M 448 31 L 468 31 L 468 41 L 448 41 L 448 31 Z Z" stroke-miterlimit="10"/></g><g transform="translate(-14,-14) scale(1,1)"><rect fill="#ffffff" stroke="none" x="448" y="51" width="20" height="10"/></g><g transform="translate(-14,-14) scale(1,1)"><path fill="none" stroke="#000000" d="M 448 51 L 468 51 L 468 61 L 448 61 L 448 51 Z Z" stroke-miterlimit="10"/></g><g transform="translate(-14,-14) scale(1,1)"><g><path fill="none" stroke="none"/><text fill="#000000" stroke="none" font-family="Arial" font-size="13px" font-style="normal" font-weight="bold" text-decoration="none" x="500.872314453125" y="43.5">RecFibComputer</text></g></g><g transform="translate(-14,-14) scale(1,1)"><rect fill="#C0C0C0" stroke="none" x="465" y="87" width="174" height="44" opacity="0.2"/></g><g transform="translate(-14,-14) scale(1,1)"><rect fill="#ffffff" stroke="none" x="458" y="80" width="174" height="44"/></g><g transform="translate(-14,-14) scale(1,1)"><path fill="none" stroke="#000000" d="M 458 80 L 632 80 L 632 124 L 458 124 L 458 80 Z Z" stroke-miterlimit="10"/></g><g transform="translate(-14,-14) scale(1,1)"><rect fill="#ffffff" stroke="none" x="448" y="87" width="20" height="10"/></g><g transform="translate(-14,-14) scale(1,1)"><path fill="none" stroke="#000000" d="M 448 87 L 468 87 L 468 97 L 448 97 L 448 87 Z Z" stroke-miterlimit="10"/></g><g transform="translate(-14,-14) scale(1,1)"><rect fill="#ffffff" stroke="none" x="448" y="107" width="20" height="10"/></g><g transform="translate(-14,-14) scale(1,1)"><path fill="none" stroke="#000000" d="M 448 107 L 468 107 L 468 117 L 448 117 L 448 107 Z Z" stroke-miterlimit="10"/></g><g transform="translate(-14,-14) scale(1,1)"><g><path fill="none" stroke="none"/><text fill="#000000" stroke="none" font-family="Arial" font-size="13px" font-style="normal" font-weight="bold" text-decoration="none" x="503.0400390625" y="99.5">IterFibComputer</text></g></g><g transform="translate(-14,-14) scale(1,1)"><rect fill="#C0C0C0" stroke="none" x="465" y="143" width="174" height="44" opacity="0.2"/></g><g transform="translate(-14,-14) scale(1,1)"><rect fill="#ffffff" stroke="none" x="458" y="136" width="174" height="44"/></g><g transform="translate(-14,-14) scale(1,1)"><path fill="none" stroke="#000000" d="M 458 136 L 632 136 L 632 180 L 458 180 L 458 136 Z Z" stroke-miterlimit="10"/></g><g transform="translate(-14,-14) scale(1,1)"><rect fill="#ffffff" stroke="none" x="448" y="143" width="20" height="10"/></g><g transform="translate(-14,-14) scale(1,1)"><path fill="none" stroke="#000000" d="M 448 143 L 468 143 L 468 153 L 448 153 L 448 143 Z Z" stroke-miterlimit="10"/></g><g transform="translate(-14,-14) scale(1,1)"><rect fill="#ffffff" stroke="none" x="448" y="163" width="20" height="10"/></g><g transform="translate(-14,-14) scale(1,1)"><path fill="none" stroke="#000000" d="M 448 163 L 468 163 L 468 173 L 448 173 L 448 163 Z Z" stroke-miterlimit="10"/></g><g transform="translate(-14,-14) scale(1,1)"><g><path fill="none" stroke="none"/><text fill="#000000" stroke="none" font-family="Arial" font-size="13px" font-style="normal" font-weight="bold" text-decoration="none" x="501.595947265625" y="155.5">AccFibComputer</text></g></g><g transform="translate(-14,-14) scale(1,1)"><rect fill="#C0C0C0" stroke="none" x="465" y="199" width="174" height="44" opacity="0.2"/></g><g transform="translate(-14,-14) scale(1,1)"><rect fill="#ffffff" stroke="none" x="458" y="192" width="174" height="44"/></g><g transform="translate(-14,-14) scale(1,1)"><path fill="none" stroke="#000000" d="M 458 192 L 632 192 L 632 236 L 458 236 L 458 192 Z Z" stroke-miterlimit="10"/></g><g transform="translate(-14,-14) scale(1,1)"><rect fill="#ffffff" stroke="none" x="448" y="199" width="20" height="10"/></g><g transform="translate(-14,-14) scale(1,1)"><path fill="none" stroke="#000000" d="M 448 199 L 468 199 L 468 209 L 448 209 L 448 199 Z Z" stroke-miterlimit="10"/></g><g transform="translate(-14,-14) scale(1,1)"><rect fill="#ffffff" stroke="none" x="448" y="219" width="20" height="10"/></g><g transform="translate(-14,-14) scale(1,1)"><path fill="none" stroke="#000000" d="M 448 219 L 468 219 L 468 229 L 448 229 L 448 219 Z Z" stroke-miterlimit="10"/></g><g transform="translate(-14,-14) scale(1,1)"><g><path fill="none" stroke="none"/><text fill="#000000" stroke="none" font-family="Arial" font-size="13px" font-style="normal" font-weight="bold" text-decoration="none" x="482.457763671875" y="211.5">MatrixMultFibComputer</text></g></g><g transform="translate(-14,-14) scale(1,1)"><rect fill="#C0C0C0" stroke="none" x="465" y="319" width="174" height="44" opacity="0.2"/></g><g transform="translate(-14,-14) scale(1,1)"><rect fill="#ffffff" stroke="none" x="458" y="312" width="174" height="44"/></g><g transform="translate(-14,-14) scale(1,1)"><path fill="none" stroke="#000000" d="M 458 312 L 632 312 L 632 356 L 458 356 L 458 312 Z Z" stroke-miterlimit="10"/></g><g transform="translate(-14,-14) scale(1,1)"><rect fill="#ffffff" stroke="none" x="448" y="319" width="20" height="10"/></g><g transform="translate(-14,-14) scale(1,1)"><path fill="none" stroke="#000000" d="M 448 319 L 468 319 L 468 329 L 448 329 L 448 319 Z Z" stroke-miterlimit="10"/></g><g transform="translate(-14,-14) scale(1,1)"><rect fill="#ffffff" stroke="none" x="448" y="339" width="20" height="10"/></g><g transform="translate(-14,-14) scale(1,1)"><path fill="none" stroke="#000000" d="M 448 339 L 468 339 L 468 349 L 448 349 L 448 339 Z Z" stroke-miterlimit="10"/></g><g transform="translate(-14,-14) scale(1,1)"><g><path fill="none" stroke="none"/><text fill="#000000" stroke="none" font-family="Arial" font-size="13px" font-style="normal" font-weight="bold" text-decoration="none" x="488.2373046875" y="331.5">MatrixSqrFibCompter</text></g></g><g transform="translate(-14,-14) scale(1,1)"><path fill="#C0C0C0" stroke="none" d="M 335.44677734375 178.5 C 335.44677734375 172.1487248 340.59550214375 167 346.94677734375 167 C 353.29805254375 167 358.44677734375 172.1487248 358.44677734375 178.5 C 358.44677734375 184.8512752 353.29805254375 190 346.94677734375 190 C 340.59550214375 190 335.44677734375 184.8512752 335.44677734375 178.5 Z" opacity="0.2"/></g><g transform="translate(-14,-14) scale(1,1)"><path fill="none" stroke="#000000" d="M 339 159.5 A 11.5 11.5 0 0 1 339 182.5" stroke-miterlimit="10"/></g><g transform="translate(-14,-14) scale(1,1)"><path fill="none" stroke="#000000" d="M 339 159.5 A 11.5 11.5 0 0 1 339 182.5" stroke-miterlimit="10"/></g><g transform="translate(-14,-14) scale(1,1)"><path fill="none" stroke="#000000" d="M 339 159.5 A 11.5 11.5 0 0 1 339 182.5" stroke-miterlimit="10"/></g><g transform="translate(-14,-14) scale(1,1)"><path fill="none" stroke="#000000" d="M 339 159.5 A 11.5 11.5 0 0 1 339 182.5" stroke-miterlimit="10"/></g><g transform="translate(-14,-14) scale(1,1)"><path fill="none" stroke="#000000" d="M 339 159.5 A 11.5 11.5 0 0 1 339 182.5" stroke-miterlimit="10"/></g><g transform="translate(-14,-14) scale(1,1)"><path fill="#ffffff" stroke="none" d="M 331.44677734375 171.5 C 331.44677734375 166.8055792 335.25235654375 163 339.94677734375 163 C 344.64119814375 163 348.44677734375 166.8055792 348.44677734375 171.5 C 348.44677734375 176.1944208 344.64119814375 180 339.94677734375 180 C 335.25235654375 180 331.44677734375 176.1944208 331.44677734375 171.5 Z"/></g><g transform="translate(-14,-14) scale(1,1)"><path fill="none" stroke="#000000" d="M 331.44677734375 171.5 C 331.44677734375 166.8055792 335.25235654375 163 339.94677734375 163 C 344.64119814375 163 348.44677734375 166.8055792 348.44677734375 171.5 C 348.44677734375 176.1944208 344.64119814375 180 339.94677734375 180 C 335.25235654375 180 331.44677734375 176.1944208 331.44677734375 171.5 Z" stroke-miterlimit="10"/></g><g transform="translate(-14,-14) scale(1,1)"><path fill="none" stroke="#000000" d="M 280 208 L 399.8935546875 208" stroke-miterlimit="10"/></g><g transform="translate(-14,-14) scale(1,1)"><g><path fill="none" stroke="none"/><text fill="#000000" stroke="none" font-family="Arial" font-size="13px" font-style="normal" font-weight="bold" text-decoration="none" x="316.10498046875" y="202.5">IArithOp</text></g></g><g transform="translate(-14,-14) scale(1,1)"><g><path fill="none" stroke="none"/><text fill="#000000" stroke="none" font-family="Arial" font-size="13px" font-style="normal" font-weight="normal" text-decoration="none" x="285" y="225.5">+sum(first, second)</text></g></g><g transform="translate(-14,-14) scale(1,1)"><g><path fill="none" stroke="none"/><text fill="#000000" stroke="none" font-family="Arial" font-size="13px" font-style="normal" font-weight="normal" text-decoration="none" x="285" y="240.5">+mult(first, second)</text></g></g><g transform="translate(-14,-14) scale(1,1)"><path fill="none" stroke="#000000" d="M 448 224 L 424 224 M 424 224 A 8 8 0 0 1 416 216 L 416 179 M 416 179 A 8 8 0 0 0 408 171 L 351.44677734375 171" stroke-miterlimit="10"/></g><g transform="translate(-14,-14) scale(1,1)"><path fill="none" stroke="#000000" d="M 448 56 L 424 56 M 424 56 A 8 8 0 0 0 416 64 L 416 163 M 416 163 A 8 8 0 0 1 408 171 L 351.44677734375 171" stroke-miterlimit="10"/></g><g transform="translate(-14,-14) scale(1,1)"><path fill="none" stroke="#000000" d="M 448 112 L 424 112 M 424 112 A 8 8 0 0 0 416 120 L 416 163 M 416 163 A 8 8 0 0 1 408 171 L 351.44677734375 171" stroke-miterlimit="10"/></g><g transform="translate(-14,-14) scale(1,1)"><path fill="none" stroke="#000000" d="M 448 171 L 351.44677734375 171" stroke-miterlimit="10"/></g><g transform="translate(-14,-14) scale(1,1)"><path fill="none" stroke="#000000" d="M 448 344 L 424 344 M 424 344 A 8 8 0 0 1 416 336 L 416 179 M 416 179 A 8 8 0 0 0 408 171 L 351.44677734375 171" stroke-miterlimit="10"/></g><g transform="translate(-14,-14) scale(1,1)"><rect fill="#C0C0C0" stroke="none" x="121" y="263" width="94" height="44" opacity="0.2"/></g><g transform="translate(-14,-14) scale(1,1)"><rect fill="#ffffff" stroke="none" x="114" y="256" width="94" height="44"/></g><g transform="translate(-14,-14) scale(1,1)"><path fill="none" stroke="#000000" d="M 114 256 L 208 256 L 208 300 L 114 300 L 114 256 Z Z" stroke-miterlimit="10"/></g><g transform="translate(-14,-14) scale(1,1)"><rect fill="#ffffff" stroke="none" x="104" y="263" width="20" height="10"/></g><g transform="translate(-14,-14) scale(1,1)"><path fill="none" stroke="#000000" d="M 104 263 L 124 263 L 124 273 L 104 273 L 104 263 Z Z" stroke-miterlimit="10"/></g><g transform="translate(-14,-14) scale(1,1)"><rect fill="#ffffff" stroke="none" x="104" y="283" width="20" height="10"/></g><g transform="translate(-14,-14) scale(1,1)"><path fill="none" stroke="#000000" d="M 104 283 L 124 283 L 124 293 L 104 293 L 104 283 Z Z" stroke-miterlimit="10"/></g><g transform="translate(-14,-14) scale(1,1)"><g><path fill="none" stroke="none"/><text fill="#000000" stroke="none" font-family="Arial" font-size="13px" font-style="normal" font-weight="bold" text-decoration="none" x="138.175048828125" y="275.5">LongArith</text></g></g><g transform="translate(-14,-14) scale(1,1)"><path fill="none" stroke="#000000" d="M 208 278 L 248 278 M 248 278 A 8 8 0 0 0 256 270 L 256 179 M 256 179 A 8 8 0 0 1 264 171 L 328.44677734375 171" stroke-miterlimit="10"/></g><g transform="translate(-14,-14) scale(1,1)"><rect fill="#C0C0C0" stroke="none" x="113" y="31" width="102" height="44" opacity="0.2"/></g><g transform="translate(-14,-14) scale(1,1)"><rect fill="#ffffff" stroke="none" x="106" y="24" width="102" height="44"/></g><g transform="translate(-14,-14) scale(1,1)"><path fill="none" stroke="#000000" d="M 106 24 L 208 24 L 208 68 L 106 68 L 106 24 Z Z" stroke-miterlimit="10"/></g><g transform="translate(-14,-14) scale(1,1)"><rect fill="#ffffff" stroke="none" x="96" y="31" width="20" height="10"/></g><g transform="translate(-14,-14) scale(1,1)"><path fill="none" stroke="#000000" d="M 96 31 L 116 31 L 116 41 L 96 41 L 96 31 Z Z" stroke-miterlimit="10"/></g><g transform="translate(-14,-14) scale(1,1)"><rect fill="#ffffff" stroke="none" x="96" y="51" width="20" height="10"/></g><g transform="translate(-14,-14) scale(1,1)"><path fill="none" stroke="#000000" d="M 96 51 L 116 51 L 116 61 L 96 61 L 96 51 Z Z" stroke-miterlimit="10"/></g><g transform="translate(-14,-14) scale(1,1)"><g><path fill="none" stroke="none"/><text fill="#000000" stroke="none" font-family="Arial" font-size="13px" font-style="normal" font-weight="bold" text-decoration="none" x="128.0400390625" y="43.5">DefaultArith</text></g></g><g transform="translate(-14,-14) scale(1,1)"><path fill="none" stroke="#000000" d="M 208 48 L 248 48 M 248 48 A 8 8 0 0 1 256 56 L 256 163 M 256 163 A 8 8 0 0 0 264 171 L 328.44677734375 171" stroke-miterlimit="10"/></g><g transform="translate(-14,-14) scale(1,1)"><path fill="none" stroke="#000000" d="M 147 256 L 147 68" stroke-miterlimit="10" stroke-dasharray="3"/></g><g transform="translate(-14,-14) scale(1,1)"><path fill="none" stroke="#000000" d="M 151.209517756016 78.16267485762415 L 147 68 L 142.790482243984 78.16267485762415" stroke-miterlimit="10"/></g><g transform="translate(-14,-14) scale(1,1)"><rect fill="#C0C0C0" stroke="none" x="793" y="127" width="98.44091796875" height="44" opacity="0.2"/></g><g transform="translate(-14,-14) scale(1,1)"><rect fill="#ffffff" stroke="none" x="786" y="120" width="98.44091796875" height="44"/></g><g transform="translate(-14,-14) scale(1,1)"><path fill="none" stroke="#000000" d="M 786 120 L 884.44091796875 120 L 884.44091796875 164 L 786 164 L 786 120 Z Z" stroke-miterlimit="10"/></g><g transform="translate(-14,-14) scale(1,1)"><rect fill="#ffffff" stroke="none" x="776" y="127" width="20" height="10"/></g><g transform="translate(-14,-14) scale(1,1)"><path fill="none" stroke="#000000" d="M 776 127 L 796 127 L 796 137 L 776 137 L 776 127 Z Z" stroke-miterlimit="10"/></g><g transform="translate(-14,-14) scale(1,1)"><rect fill="#ffffff" stroke="none" x="776" y="147" width="20" height="10"/></g><g transform="translate(-14,-14) scale(1,1)"><path fill="none" stroke="#000000" d="M 776 147 L 796 147 L 796 157 L 776 157 L 776 147 Z Z" stroke-miterlimit="10"/></g><g transform="translate(-14,-14) scale(1,1)"><g><path fill="none" stroke="none"/><text fill="#000000" stroke="none" font-family="Arial" font-size="13px" font-style="normal" font-weight="bold" text-decoration="none" x="803.378662109375" y="139.5">ChartDrawer</text></g></g><g transform="translate(-14,-14) scale(1,1)"><path fill="none" stroke="#000000" d="M 534 312 L 534 236" stroke-miterlimit="10" stroke-dasharray="3"/></g><g transform="translate(-14,-14) scale(1,1)"><path fill="none" stroke="#000000" d="M 538.209517756016 246.16267485762415 L 534 236 L 529.790482243984 246.16267485762415" stroke-miterlimit="10"/></g><g transform="translate(-14,-14) scale(1,1)"><path fill="#ffffff" stroke="none" d="M 480 256 L 581 256 L 591 266 L 591 292 L 480 292 L 480 256"/></g><g transform="translate(-14,-14) scale(1,1)"><path fill="none" stroke="#000000" d="M 480 256 L 581 256 L 591 266 L 591 292 L 480 292 L 480 256 L 480 256" stroke-miterlimit="10"/></g><g transform="translate(-14,-14) scale(1,1)"><path fill="none" stroke="#000000" d="M 581 256 L 581 266 L 591 266 L 581 256" stroke-miterlimit="10"/></g><g transform="translate(-14,-14) scale(1,1)"><g><path fill="none" stroke="none"/><text fill="#000000" stroke="none" font-family="Arial" font-size="13px" font-style="normal" font-weight="normal" text-decoration="none" x="485" y="274">Sqrt x = mult x x</text></g></g><g transform="translate(-14,-14) scale(1,1)"><path fill="none" stroke="#000000" d="M 533 275 L 533 276" stroke-miterlimit="10" stroke-dasharray="3"/></g><g transform="translate(-14,-14) scale(1,1)"><path fill="#ffffff" stroke="none" d="M 24 136 L 219 136 L 229 146 L 229 189 L 24 189 L 24 136"/></g><g transform="translate(-14,-14) scale(1,1)"><path fill="none" stroke="#000000" d="M 24 136 L 219 136 L 229 146 L 229 189 L 24 189 L 24 136 L 24 136" stroke-miterlimit="10"/></g><g transform="translate(-14,-14) scale(1,1)"><path fill="none" stroke="#000000" d="M 219 136 L 219 146 L 229 146 L 219 136" stroke-miterlimit="10"/></g><g transform="translate(-14,-14) scale(1,1)"><g><path fill="none" stroke="none"/><text fill="#000000" stroke="none" font-family="Arial" font-size="13px" font-style="normal" font-weight="normal" text-decoration="none" x="29" y="154">sum: Num -&gt; Num -&gt; Num</text></g></g><g transform="translate(-14,-14) scale(1,1)"><g><path fill="none" stroke="none"/><text fill="#000000" stroke="none" font-family="Arial" font-size="13px" font-style="normal" font-weight="normal" text-decoration="none" x="29" y="169">использует</text></g></g><g transform="translate(-14,-14) scale(1,1)"><g><path fill="none" stroke="none"/><text fill="#000000" stroke="none" font-family="Arial" font-size="13px" font-style="normal" font-weight="normal" text-decoration="none" x="29" y="184">sum: int -&gt; int -&gt; int</text></g></g><g transform="translate(-14,-14) scale(1,1)"><path fill="none" stroke="#000000" d="M 632 48 L 656 48 M 656 48 A 8 8 0 0 1 664 56 L 664 147 M 664 147 A 8 8 0 0 0 672 155 L 715.246826171875 155" stroke-miterlimit="10"/></g><g transform="translate(-14,-14) scale(1,1)"><path fill="none" stroke="#000000" d="M 632 99 L 656 99 M 656 99 A 8 8 0 0 1 664 107 L 664 147 M 664 147 A 8 8 0 0 0 672 155 L 715.246826171875 155" stroke-miterlimit="10"/></g><g transform="translate(-14,-14) scale(1,1)"><path fill="none" stroke="#000000" d="M 632 155 L 715.246826171875 155" stroke-miterlimit="10"/></g><g transform="translate(-14,-14) scale(1,1)"><path fill="none" stroke="#000000" d="M 632 334 L 656 334 M 656 334 A 8 8 0 0 0 664 326 L 664 163 M 664 163 A 8 8 0 0 1 672 155 L 715.246826171875 155" stroke-miterlimit="10"/></g><g transform="translate(-14,-14) scale(1,1)"><path fill="none" stroke="#000000" d="M 776 155 L 738.246826171875 155" stroke-miterlimit="10"/></g><g transform="translate(-14,-14) scale(1,1)"><path fill="none" stroke="#000000" d="M 632 210 L 656 210 M 656 210 A 8 8 0 0 0 664 202 L 664 163 M 664 163 A 8 8 0 0 1 672 155 L 715.246826171875 155" stroke-miterlimit="10"/></g><g transform="translate(-14,-14) scale(1,1)"><path fill="#C0C0C0" stroke="none" d="M 722.246826171875 162.5 C 722.246826171875 156.1487248 727.395550971875 151 733.746826171875 151 C 740.098101371875 151 745.246826171875 156.1487248 745.246826171875 162.5 C 745.246826171875 168.8512752 740.098101371875 174 733.746826171875 174 C 727.395550971875 174 722.246826171875 168.8512752 722.246826171875 162.5 Z" opacity="0.2"/></g><g transform="translate(-14,-14) scale(1,1)"><path fill="none" stroke="#000000" d="M 726 143.5 A 11.5 11.5 0 0 1 726 166.5" stroke-miterlimit="10"/></g><g transform="translate(-14,-14) scale(1,1)"><path fill="#ffffff" stroke="none" d="M 718.246826171875 155.5 C 718.246826171875 150.8055792 722.052405371875 147 726.746826171875 147 C 731.441246971875 147 735.246826171875 150.8055792 735.246826171875 155.5 C 735.246826171875 160.1944208 731.441246971875 164 726.746826171875 164 C 722.052405371875 164 718.246826171875 160.1944208 718.246826171875 155.5 Z"/></g><g transform="translate(-14,-14) scale(1,1)"><path fill="none" stroke="#000000" d="M 718.246826171875 155.5 C 718.246826171875 150.8055792 722.052405371875 147 726.746826171875 147 C 731.441246971875 147 735.246826171875 150.8055792 735.246826171875 155.5 C 735.246826171875 160.1944208 731.441246971875 164 726.746826171875 164 C 722.052405371875 164 718.246826171875 160.1944208 718.246826171875 155.5 Z" stroke-miterlimit="10"/></g><g transform="translate(-14,-14) scale(1,1)"><path fill="none" stroke="#000000" d="M 680 192 L 773.49365234375 192" stroke-miterlimit="10"/></g><g transform="translate(-14,-14) scale(1,1)"><g><path fill="none" stroke="none"/><text fill="#000000" stroke="none" font-family="Arial" font-size="13px" font-style="normal" font-weight="bold" text-decoration="none" x="687.372314453125" y="186.5">IFibComputer</text></g></g><g transform="translate(-14,-14) scale(1,1)"><g><path fill="none" stroke="none"/><text fill="#000000" stroke="none" font-family="Arial" font-size="13px" font-style="normal" font-weight="normal" text-decoration="none" x="685" y="209.5">+Fib(number)</text></g></g></g></svg>